<svg width="192" height="192" xmlns="http://www.w3.org/2000/svg">

 <g>
  <title>Layer 1</title>
  <g>
   <g fill="#000" stroke-width="0.25mm" stroke="#000" font-size="9pt" fill-rule="evenodd" stroke-linecap="round" id="svg_2">
    <path d="m158.887,192.188l-0.977,0.195l-2.148,-0.976q-1.758,-4.297 -1.172,-9.571l0.39,-5.469l0,-8.691l0.196,-6.445l-0.586,-0.196l-23.633,0l0,14.942l0.391,8.594q-0.586,1.367 -1.953,1.953l-1.563,0q-1.367,-0.586 -1.953,-1.953l-0.586,-8.594l0,-14.746l-2.148,0l-18.848,1.367l-2.149,-1.172q-0.781,-0.977 -0.585,-2.539q0.585,-1.563 2.148,-2.148l1.758,0l1.953,0.195l17.871,-1.367q-0.586,-5.078 1.172,-9.18q1.172,-1.172 3.125,-0.977q1.367,0.586 1.953,1.954l0,1.757q-0.977,2.93 -0.586,6.25l23.633,0l0.976,0.196q0.196,-2.539 0.196,-5.274q0,-2.734 1.367,-4.883q0.976,-0.781 2.539,-0.586q1.367,0.586 1.953,1.954l0,2.539l-0.391,6.445l8.887,0l0.196,0.195l9.179,0q4.102,-0.39 7.422,1.367q0.781,1.172 0.586,2.735q-0.586,1.367 -1.953,1.953l-2.344,0.195q-1.758,-0.586 -3.711,-0.586l-9.179,0l-0.196,-0.195l-9.277,0l-0.195,6.25l0,8.691l-0.391,11.329q0.781,0.976 0.586,2.539q-0.586,1.367 -1.953,1.953zm23.144,-55.371l-1.562,0l-1.953,-1.563q-0.782,-4.492 -1.661,-9.082q-0.878,-4.59 -0.488,-9.765l0.977,-10.547l-1.563,-0.196l-10.254,0q-5.273,0.196 -10.058,1.465q-4.785,1.27 -9.864,2.051q-1.367,-0.586 -1.953,-1.953l0,-1.563l1.953,-2.148q4.883,-1.172 9.766,-2.149q4.883,-0.976 10.156,-1.367l10.254,0q3.711,0 6.446,2.735q1.171,2.734 0.781,6.054q-0.586,3.516 -0.781,7.276q-0.196,3.759 -0.196,7.666l1.172,5.468q0.586,2.735 0.781,5.665q-0.586,1.367 -1.953,1.953zm-46.582,2.929l-1.562,0l-1.953,-1.562q-0.782,-3.32 -1.27,-6.738q-0.488,-3.418 -0.488,-7.129q0.195,-3.711 0.586,-7.373q0.39,-3.662 0.195,-7.569l-0.586,-1.562l-0.586,-0.391l-9.961,0q-4.394,0.586 -8.398,1.953q-4.004,1.367 -8.106,2.344l-2.148,-1.172q-0.781,-0.976 -0.586,-2.539q0.586,-1.367 1.953,-1.953q4.102,-1.367 8.399,-2.441q4.296,-1.075 8.886,-1.856l10.742,0q2.735,0.391 4.688,2.93q1.172,2.344 1.269,5.078q0.098,2.734 0.098,5.469q-0.391,2.929 -0.586,6.201q-0.195,3.271 -0.195,6.396q0.195,2.539 0.683,4.981q0.489,2.441 0.879,4.98q-0.586,1.367 -1.953,1.953zm-27.051,1.368l-1.562,0q-1.367,-0.586 -1.953,-1.954l0,-1.953q3.906,-4.297 8.447,-8.691q4.541,-4.395 9.033,-8.106l1.953,0q1.368,0.586 1.954,1.954l0,1.562q-4.297,4.102 -8.936,8.594q-4.639,4.492 -8.936,8.594zm45.801,-2.93l-1.562,0q-1.367,-0.586 -1.953,-1.953l0,-1.563q4.101,-4.297 8.691,-7.91q4.59,-3.613 9.375,-7.422l1.563,0q1.367,0.684 1.953,2.051l0,1.562q-4.102,4.297 -8.838,7.911q-4.737,3.613 -9.229,7.324zm-54.199,-12.891l0,-1.562q2.539,-2.93 5.762,-5.518q3.222,-2.588 6.543,-4.931q2.929,-2.149 6.933,-2.149q1.367,0.586 1.953,1.953l0,1.563q-0.586,1.367 -1.953,1.953q-4.785,1.562 -8.691,5.127q-3.906,3.564 -8.594,5.517q-1.367,-0.586 -1.953,-1.953zm47.754,-0.39l-1.563,0q-1.367,-0.586 -1.953,-1.954l0,-1.562q3.516,-3.613 7.715,-6.543q4.199,-2.93 8.496,-5.273l1.563,0q1.367,0.586 1.953,1.953l0,1.562q-3.711,3.125 -7.91,5.908q-4.2,2.784 -8.301,5.909z"/>
   </g>
  </g>
  <g>
   <g fill="#000" stroke-width="0.25mm" stroke="#000" font-size="9pt" fill-rule="evenodd" stroke-linecap="round" id="svg_3">
    <path d="m159.473,83.008l0,-1.953l0.976,-5.469l0,-2.539l0.196,-0.195l0,-2.93l0.39,-1.758l0,-5.176l0.195,-0.195l0,-15.234l0.196,-0.196l0,-4.687l-0.391,0q-2.148,2.539 -4.394,5.078q-2.246,2.539 -4.2,5.273q-1.953,2.735 -3.808,5.469q-1.856,2.734 -4.395,4.883l-1.562,0q-0.586,-0.195 -1.172,-0.781q-0.586,-0.586 -0.781,-1.172l0,-1.563q2.539,-3.32 4.785,-6.738q2.246,-3.418 4.883,-6.641q2.636,-3.222 5.371,-6.445q2.734,-3.223 5.078,-6.543l-3.711,0l-0.195,0.195l-2.93,0l-0.195,0.196l-2.735,0l-4.687,0.781l-2.735,0l-1.172,0.195l-2.148,-1.172q-0.391,-0.586 -0.488,-1.171q-0.098,-0.586 -0.098,-1.368q0.195,-0.586 0.781,-1.172q0.586,-0.585 1.172,-0.781l1.953,-0.195l2.735,0l4.687,-0.781l2.735,0l0.195,-0.196l2.93,0l0.195,-0.195l3.32,0l1.367,-0.586l0.196,-0.195l0,-17.676l-0.196,-0.195l0,-5.86q0.196,-0.781 0.391,-1.465q0.195,-0.683 0.977,-1.074l0.976,-0.586l1.953,0q0.586,0.196 1.172,0.782q0.586,0.586 0.781,1.171l0,1.563l-0.586,0.977l0,4.492l0.196,0.195l0,17.48l0.586,0.586l13.379,0l1.953,1.172q0.39,0.586 0.488,1.172q0.098,0.586 0.098,1.367q-0.196,0.586 -0.782,1.172q-0.585,0.586 -1.171,0.781l-13.965,0q-0.782,0.782 -0.782,1.954l0,4.101l-0.195,0.195l0,3.711l-0.195,0.196l0,4.101l-0.195,0.196l0,2.148q2.734,1.367 5.81,2.344q3.076,0.976 6.006,2.051q2.93,1.074 5.762,2.246q2.832,1.172 5.566,2.929q0.391,0.586 0.488,1.172q0.098,0.586 0.098,1.367q-0.195,0.586 -0.781,1.172q-0.586,0.586 -1.172,0.782l-1.953,0q-2.344,-1.172 -4.688,-2.149q-2.343,-0.976 -4.785,-1.855l-4.883,-1.758q-2.441,-0.879 -5.078,-1.66l-0.39,0.39l0,6.055l-0.196,0.195l0,5.176l-0.39,1.758l0,2.93l-0.196,0.195l0,2.539q-0.39,1.562 -0.488,3.027q-0.098,1.465 -0.293,3.028q-0.195,1.562 -1.367,2.734q-0.586,0.391 -1.172,0.488q-0.586,0.098 -1.367,0.098q-0.586,-0.195 -1.172,-0.781q-0.586,-0.586 -0.781,-1.172zm-37.891,-1.367l0,-1.953l0.391,-0.782l0,-3.32l0.195,-0.195l0,-5.469l0.195,-0.195l0,-10.254l-0.781,-0.391q-1.172,0.586 -2.49,1.27q-1.319,0.683 -2.588,1.171q-1.27,0.489 -2.637,0.782q-1.367,0.293 -2.734,0.683l-2.539,0q-0.977,-0.195 -1.856,-0.683q-0.879,-0.489 -1.66,-1.465l-0.781,-1.367l0,-2.539q0.976,-3.711 2.93,-6.934q1.953,-3.223 4.101,-6.445q2.149,-3.223 4.59,-6.25q2.441,-3.028 5.078,-5.957l-0.195,-0.196l-2.051,0l-16.016,2.539l-2.148,-1.171q-0.391,-0.586 -0.488,-1.172q-0.098,-0.586 -0.098,-1.368q0.195,-0.585 0.781,-1.171q0.586,-0.586 1.172,-0.782l1.953,0q1.758,-0.39 3.711,-0.683q1.953,-0.293 3.711,-0.684q1.758,-0.39 3.711,-0.586q1.953,-0.195 3.711,-0.586l2.832,0l2.148,-0.781l0.196,-0.195l0,-3.321l0.195,-0.195l0,-6.152l0.195,-0.196l0,-4.882l0.196,-0.196l0,-6.836l1.172,-2.148q0.586,-0.391 1.171,-0.488q0.586,-0.098 1.368,-0.098q0.586,0.195 1.172,0.781q0.585,0.586 0.781,1.172l0,7.617l-0.196,0.196l0,4.882l-0.195,0.196l0,6.152l-0.195,0.195l0,2.93l0.586,0.586l6.836,0q0.586,0.195 1.172,0.781q0.586,0.586 0.781,1.172l0,1.563q-0.195,0.586 -0.781,1.172q-0.586,0.585 -1.172,0.781l-0.977,0.195l-6.25,0l-0.586,0.586l0,6.055l-0.195,0.195l0,4.102l-0.195,0.195l0,4.297l-0.196,1.562l0.782,0.391q0.39,-0.391 1.074,-0.391l1.269,0q0.586,0.196 1.172,0.782q0.586,0.585 0.781,1.171l0,1.563q-0.586,1.172 -1.562,1.855q-0.977,0.684 -1.953,1.27q-0.977,0.586 -1.953,1.562l0,3.125l-0.196,0.196l0,10.84l-0.195,0.195l0,5.469l-0.195,0.195l0,3.906q-0.196,0.977 -0.489,1.856q-0.293,0.879 -1.074,1.66q-0.586,0.39 -1.172,0.488q-0.586,0.098 -1.367,0.098q-0.586,-0.196 -1.172,-0.781q-0.586,-0.586 -0.781,-1.172zm-1.562,-28.223l2.734,-1.953l0.195,-1.172l0,-4.297l0.196,-0.195l0,-4.297l0.195,-0.195l0,-2.735l-0.781,-0.195q-1.954,2.148 -3.76,4.394q-1.807,2.247 -3.272,4.59q-1.464,2.344 -2.929,4.785q-1.465,2.442 -2.246,4.981l1.367,0q1.367,-0.391 2.734,-0.977q1.367,-0.586 2.735,-1.269q1.367,-0.684 2.832,-1.465z"/>
   </g>
  </g>
  <g>
   <g fill="#000" stroke-width="0.25mm" stroke="#000" font-size="9pt" fill-rule="evenodd" stroke-linecap="round" id="svg_4">
    <path d="m71.32797,95.313l-1.562,0q-3.321,-4.493 -6.592,-9.473q-3.272,-4.981 -6.397,-9.863l0,-0.391l-0.39,0q-3.711,3.125 -7.227,6.543q-3.515,3.418 -7.812,5.176q-1.368,-0.586 -1.953,-1.953l0,-1.563q3.125,-3.711 7.031,-6.934q3.906,-3.222 7.226,-6.835q-1.953,-3.321 -3.906,-6.739q-1.953,-3.418 -3.516,-7.129l-5.859,0l-9.766,0.586l0,0.391q2.735,1.172 5.274,2.93q2.539,1.757 5.078,3.711q0.781,0.976 0.586,2.539q-0.586,1.367 -1.953,1.953l-1.563,0l-8.789,-5.274l0,6.836l1.758,0l6.836,-0.39q1.367,0.586 1.953,1.953l0,1.66q-0.586,1.367 -1.953,1.953l-13.281,0.977l-1.563,3.906l1.172,0q2.735,-0.391 5.078,-1.367q2.344,-0.977 4.883,-1.563q1.563,0.586 2.149,2.149l0,1.562q-1.758,3.125 -2.735,6.543q-0.976,3.418 -2.344,6.543q-0.976,0.781 -2.539,0.586q-1.367,-0.586 -1.953,-1.953l-0.195,-1.172l1.758,-6.445l-0.391,0l-6.055,0.976q-2.539,0 -4.296,-2.148q-0.977,-1.563 -0.782,-3.516l0.782,-2.734l-0.391,0q-3.711,0.976 -7.91,1.562q-1.367,-0.586 -1.953,-1.953l0,-1.562l1.757,-1.953l1.172,-0.196l0,-0.39l-1.953,-1.075q-0.781,-1.172 -0.586,-2.929q2.149,-3.125 5.127,-5.762q2.979,-2.637 5.518,-5.176l-0.977,0l-14.551,1.758l-2.148,-1.172q-0.781,-0.976 -0.586,-2.539q0.586,-1.367 1.953,-1.953l21.778,-2.344l0,-4.297q-4.297,0 -7.813,-1.758q-0.781,-0.976 -0.586,-2.539q0.586,-1.367 1.953,-1.953l2.539,0q4.492,0.782 9.18,0.879q4.687,0.098 8.594,1.856q0.781,0.976 0.586,2.539q-0.586,1.367 -1.953,1.953l-1.954,0l-4.882,-0.586l0,3.516l0.781,0l13.281,-0.782l0,-0.781q-2.344,-3.516 -2.93,-7.617l1.172,-2.149q0.977,-0.781 2.539,-0.586q1.368,0.586 1.953,1.954q0.586,2.539 1.758,4.687q1.172,2.149 1.758,4.492l10.547,0l3.418,0.391l0,-0.391q-4.199,-1.758 -7.715,-4.687q-0.586,-1.172 -0.391,-2.539q0.586,-1.367 1.954,-1.953l1.562,0q2.734,1.953 5.713,3.32q2.979,1.367 5.713,2.93q0.781,0.976 0.586,2.539q-0.586,1.367 -1.953,1.953l-1.953,0l-2.149,-0.781l0,0.195q1.563,1.172 1.172,3.125q-0.586,1.367 -1.953,1.953l-1.66,0q-2.344,-0.391 -4.883,-0.391l-5.078,0l0,0.391q1.172,2.539 2.637,4.98q1.464,2.442 2.832,4.786l0.39,0q2.539,-2.149 4.834,-4.688q2.295,-2.539 5.42,-2.734q1.367,0.586 1.953,1.953l0,1.562q-2.148,2.344 -4.492,4.493q-2.344,2.148 -4.785,4.492l-0.391,0l0,0.39q3.028,5.567 6.739,10.645q3.71,5.078 5.468,10.937q-0.586,1.368 -1.953,1.954zm-58.203,-54.395l-2.148,-1.172q-0.782,-0.976 -0.586,-2.539q0.586,-1.367 1.953,-1.953q5.761,-0.781 11.523,-1.27q5.762,-0.488 11.621,-1.074l0,-4.297l-0.781,0l-14.062,1.563l-2.149,-1.172q-0.781,-0.977 -0.586,-2.539q0.586,-1.367 1.953,-1.953q3.907,-0.391 7.813,-0.879q3.906,-0.488 7.812,-0.684l0.196,-4.394l-5.469,0q-3.516,0.195 -6.836,0.683q-3.32,0.489 -6.641,0.879l-2.148,-1.172q-0.781,-0.976 -0.586,-2.539q0.586,-1.367 1.953,-1.953q6.445,-0.976 13.086,-1.367q6.641,-0.391 13.477,-0.391l1.562,-3.515l-0.586,0q-2.539,0.39 -5.078,0.976q-2.539,0.586 -5.469,0.391q-3.125,-0.391 -6.054,-1.27q-2.93,-0.879 -5.469,-2.832q-1.172,-1.172 -0.977,-3.125q0.586,-1.367 1.953,-1.953l1.563,0q2.734,1.953 5.859,2.832q3.125,0.879 6.836,0.684q4.688,-0.586 9.082,-2.051q4.395,-1.465 8.692,-2.832q1.367,0.586 1.953,1.953l0,1.758q-3.711,2.539 -6.055,6.25l-1.172,2.734q3.125,0.391 6.348,0.293q3.222,-0.097 5.957,1.465q0.781,0.977 0.586,2.539q-0.586,1.367 -1.953,1.953l-2.344,0l-7.617,-0.586l-8.789,0l-0.196,4.395l12.11,0q2.929,0.195 5.468,1.562q0.782,0.977 0.586,2.539q-0.586,1.368 -1.953,1.954l-1.562,0.195l-2.539,-0.586l-12.11,0l0,4.297l16.211,0q2.539,0.39 5.323,0.488q2.783,0.098 4.931,1.66q0.781,0.977 0.586,2.539q-0.586,1.368 -1.953,1.953l-1.953,0q-3.418,-0.781 -6.934,-0.976l-18.75,0q-6.445,0.391 -12.793,1.074q-6.347,0.684 -12.695,1.465zm10.449,20.703l-0.586,0q-2.734,2.539 -5.664,5.176q-2.929,2.637 -5.176,5.859l0.586,0q2.637,-0.683 5.176,-1.269q2.539,-0.586 5.078,-0.977q0.977,-4.101 0.586,-8.789z"/>
   </g>
  </g>
  <g>
   <g fill="#000" stroke-width="0.25mm" stroke="#000" font-size="9pt" fill-rule="evenodd" stroke-linecap="round" id="svg_7">
    <path d="m37.5,152.949l-1.953,0q-1.367,-0.39 -2.832,-0.586q-1.465,-0.195 -2.735,-0.879q-1.269,-0.683 -2.441,-1.66q-0.586,-0.781 -1.269,-1.562q-0.684,-0.782 -0.879,-1.758l-0.391,-1.953l0,-2.735q0.195,-1.562 0.586,-3.125q0.391,-1.562 1.172,-2.978q0.781,-1.416 1.953,-2.783q0.977,-0.782 1.758,-1.465q0.781,-0.684 2.051,-0.684q1.269,0 2.05,-0.781l3.321,0q1.367,0.195 2.539,0.586q1.172,0.391 2.295,1.172q1.123,0.781 2.099,1.758l1.172,1.562q0.586,0.781 0.977,1.709q0.39,0.928 0.586,1.904l0,4.688q-0.196,1.172 -0.586,2.344q-0.391,1.172 -1.075,2.246q-0.683,1.074 -1.66,1.855q-1.074,0.977 -2.148,1.563q-1.074,0.586 -2.246,0.976q-1.172,0.391 -2.344,0.586zm-0.195,-5.664l2.734,-1.367l1.758,-2.734l0,-3.907q-0.586,-1.172 -1.465,-2.05q-0.879,-0.879 -2.051,-1.368l-0.781,-0.195l-2.344,0l-2.734,1.856q-0.586,0.976 -1.074,2.05q-0.489,1.075 -0.684,2.246l0,2.539q0.391,0.586 0.781,1.27q0.391,0.684 1.172,0.879l4.688,0.781z"/>
   </g>
  </g>
 </g>
</svg>